<?xml version="1.0" encoding="UTF-8"?>
<!-- Generated by Pixelmator Pro 3.7 -->
<svg width="1024" height="1024" viewBox="0 0 1024 1024" xmlns="http://www.w3.org/2000/svg">
    <path id="path1" fill="#ffffff" fill-rule="evenodd" stroke="none" d="M 153.605469 732.255554 L 153.605469 317.869568 C 153.605469 310.963379 155.692078 305.379517 159.865387 301.117676 C 164.038696 296.855896 169.66684 294.725037 176.75 294.725037 L 862.241943 294.725037 C 869.322083 294.725037 874.949463 296.855896 879.124268 301.117676 C 883.299072 305.379517 885.386475 310.963379 885.386475 317.869568 L 885.386475 732.255554 C 885.386475 739.161743 883.299072 744.701355 879.124268 748.874634 C 874.949463 753.047974 869.322083 755.134583 862.241943 755.134583 L 176.75 755.134583 C 169.66684 755.134583 164.038696 753.047974 159.865387 748.874634 C 155.692078 744.701355 153.605469 739.161743 153.605469 732.255554 Z M 207.964905 684.519958 C 207.964905 695.356812 213.276443 700.775146 223.899658 700.775146 L 815.087708 700.775146 C 825.710938 700.775146 831.022461 695.356812 831.022461 684.519958 L 831.022461 365.344238 C 831.022461 354.681335 825.710938 349.349976 815.087708 349.349976 L 223.899658 349.349976 C 213.276443 349.349976 207.964905 354.681335 207.964905 365.344238 Z M 237.847717 664.648438 L 237.847717 385.215759 C 237.847717 381.068359 239.919846 378.994751 244.064148 378.994751 L 455.413635 378.994751 C 441.683716 393.670715 430.921783 413.485596 423.127563 438.439941 C 415.333344 463.394287 411.436279 492.126343 411.436279 524.636841 C 411.436279 557.327393 415.333344 586.202881 423.127563 611.264038 C 430.921783 636.325195 441.868347 656.191956 455.967529 670.864868 L 244.064148 670.864868 C 239.919846 670.864868 237.847717 668.792725 237.847717 664.648438 Z M 445.29248 524.636841 C 445.29248 496.530029 448.381592 471.938416 454.559906 450.861328 C 460.73822 429.784302 469.27771 413.443054 480.17865 401.837158 C 491.07959 390.231262 503.794617 384.428406 518.324097 384.428406 C 533.439514 384.428406 546.642822 390.231262 557.934387 401.837158 C 569.225952 413.443054 578.058411 429.784302 584.432007 450.861328 C 590.805664 471.938416 593.992432 496.530029 593.992432 524.636841 C 593.992432 552.938965 590.805664 577.583984 584.432007 598.57251 C 578.058411 619.561096 569.225952 635.906921 557.934387 647.610474 C 546.642822 659.314026 533.439514 665.16571 518.324097 665.16571 C 503.794617 665.16571 491.07959 659.314026 480.17865 647.610474 C 469.27771 635.906921 460.73822 619.561096 454.559906 598.57251 C 448.381592 577.583984 445.29248 552.938965 445.29248 524.636841 Z M 582.461365 670.864868 C 596.740601 656.191956 607.874817 636.325195 615.86438 611.264038 C 623.853943 586.202881 627.848633 557.327393 627.848633 524.636841 C 627.848633 492.126343 623.902771 463.394287 616.010864 438.439941 C 608.118958 413.485596 597.033569 393.670715 582.754333 378.994751 L 794.923218 378.994751 C 799.070557 378.994751 801.144226 381.068359 801.144226 385.215759 L 801.144226 664.648438 C 801.144226 668.792725 799.070557 670.864868 794.923218 670.864868 Z"/>
</svg>
